<svg width="32" height="32" viewBox="0 0 32 32" fill="none" xmlns="http://www.w3.org/2000/svg">
<rect width="32" height="32" fill="white"/>
<rect x="4" y="4" width="24" height="24" fill="#FF6E00"/>
<rect x="1" y="1" width="30" height="30" stroke="#FF6E00" stroke-width="2"/>
<g clip-path="url(#clip0_3_10)">
<path d="M26.4966 7.4143C26.4679 7.18602 26.2591 7.02428 26.0309 7.05327C25.9558 7.06272 24.1693 7.3035 23.2403 8.68445C22.6733 9.52828 22.5549 10.5924 22.8899 11.8479C23.2354 13.1422 23.2452 14.3272 23.1176 15.3111C23.1164 15.3007 23.1158 15.2904 23.1145 15.28C23.1133 15.2601 23.1115 15.2403 23.1078 15.2208C22.8887 13.3717 22.0629 11.6609 20.7256 10.3239C19.265 8.8633 17.3576 8.01216 15.3111 7.8971C15.294 7.89496 15.2763 7.89406 15.2586 7.89406C15.1176 7.88702 14.9754 7.88339 14.8332 7.88339C12.6072 7.88339 10.5149 8.75012 8.94083 10.3239C7.36673 11.898 6.5 13.9906 6.5 16.2166C6.5 18.4428 7.36673 20.5352 8.94083 22.1093C10.515 23.6834 12.6073 24.5501 14.8332 24.5501C17.0592 24.5501 19.1521 23.6834 20.7256 22.1093C20.9868 21.8486 21.2273 21.5734 21.4489 21.2859C21.4519 21.2816 21.455 21.2773 21.4586 21.2731C21.9323 20.6548 22.3125 19.9798 22.5933 19.2644C22.7349 19.0496 23.2061 18.283 23.5711 17.1184C23.9623 15.8708 24.3017 13.9067 23.695 11.6331C23.4258 10.623 23.5046 9.78863 23.9288 9.15385C24.6422 8.08756 26.1218 7.88187 26.1358 7.88003C26.3641 7.851 26.5259 7.64257 26.4966 7.4143ZM22.2345 14.9937C19.9249 15.6203 17.5963 15.9306 15.2977 15.919C15.4869 15.5015 15.6865 15.0908 15.8971 14.6885C15.9941 14.6904 16.0906 14.6916 16.187 14.6916C18.7511 14.6916 21.0241 14.0269 21.9128 13.7294C22.0562 14.1386 22.1637 14.5613 22.2345 14.9937ZM21.1028 12.0964C21.2853 12.3728 21.4483 12.66 21.5911 12.956C20.736 13.2353 18.6589 13.827 16.3548 13.8566C16.4458 13.6986 16.5386 13.5414 16.6332 13.3861C16.7833 13.1392 16.9347 12.903 17.0842 12.6775C18.4331 12.6625 19.5055 12.4882 20.1806 12.3403C20.5822 12.2521 20.8929 12.1632 21.1028 12.0964ZM20.1367 10.9132C20.2886 11.0651 20.4327 11.2229 20.57 11.3853C20.4064 11.4307 20.208 11.4814 19.9774 11.5315C19.4494 11.6462 18.662 11.7781 17.6787 11.8263C18.2672 11.0261 18.7951 10.4288 19.143 10.0761C19.4939 10.3236 19.8266 10.6031 20.1367 10.9132ZM7.69205 18.5185C7.45584 17.7843 7.33317 17.0097 7.33317 16.2165C7.33317 14.2134 8.11321 12.3298 9.52986 10.9132C10.067 10.3761 10.6718 9.9308 11.3243 9.58442C10.9288 10.0968 10.4686 10.7526 10.0078 11.5406C9.30221 12.7479 8.74189 14.0165 8.34332 15.3117C8.01858 16.3655 7.8007 17.4388 7.69205 18.5185ZM8.44403 20.1482C8.44282 18.6107 8.67473 17.072 9.13433 15.5742C9.51212 14.3434 10.0431 13.1361 10.7127 11.9859C11.5776 10.5009 12.5218 9.39521 12.9649 8.95027C13.394 8.84072 13.8353 8.76872 14.2845 8.73633C13.7151 9.38267 12.863 10.4438 12.003 11.8617C11.1436 13.2795 10.4558 14.7612 9.95894 16.2654C9.44625 17.8178 9.13679 19.3987 9.03607 20.9758C8.81878 20.7121 8.62164 20.4357 8.44403 20.1482ZM9.83568 21.8084C9.86745 20.0493 10.1732 18.2787 10.7451 16.5429C11.2194 15.1009 11.8779 13.679 12.7019 12.3167C13.7401 10.5998 14.8626 9.29758 15.4162 8.7391C15.8117 8.7693 16.2017 8.83033 16.5819 8.921C16.0003 9.52828 15.0091 10.6657 13.9959 12.2975C13.0876 13.7596 12.3503 15.3178 11.8047 16.9285C11.1967 18.7224 10.8269 20.5865 10.7018 22.4785C10.3997 22.2783 10.1097 22.055 9.83568 21.8084ZM12.9637 20.1653C12.8166 20.7738 12.6902 21.3909 12.5834 22.0147C12.5798 22.03 12.5767 22.0458 12.5749 22.0623C12.5749 22.0629 12.5749 22.0635 12.5749 22.0635C12.5053 22.4773 12.4449 22.8936 12.393 23.3123C12.0909 23.2085 11.7967 23.0858 11.5105 22.9442C11.6014 20.9905 11.9633 19.0642 12.5871 17.2148C13.1102 15.6676 13.8164 14.1701 14.6874 12.7635C15.7561 11.0371 16.8932 9.76355 17.4809 9.19565C17.8033 9.31712 18.1169 9.46085 18.4203 9.62654C17.9058 10.1664 16.9548 11.262 15.9404 12.921C15.3179 13.9396 14.7648 15.02 14.2882 16.1464C14.2845 16.1543 14.2815 16.1625 14.2778 16.1708C14.0977 16.5984 13.9275 17.0323 13.77 17.4724C13.4605 18.3343 13.195 19.2199 12.9747 20.1232C12.9704 20.1372 12.9667 20.1506 12.9637 20.1653ZM14.8332 23.7163C14.279 23.7163 13.7334 23.6565 13.2048 23.5405C13.2433 23.2122 13.2884 22.8862 13.3385 22.5621C13.8811 22.611 14.4231 22.636 14.9608 22.636C15.587 22.636 16.209 22.603 16.8217 22.5365C17.777 22.4333 18.7157 22.2478 19.6275 21.9841C18.2836 23.106 16.6057 23.7163 14.8332 23.7163ZM20.8648 20.6767C18.557 21.607 16.0753 21.9634 13.4795 21.7381C13.5448 21.3872 13.6174 21.0387 13.6962 20.6926C14.2742 20.739 14.8467 20.7622 15.4125 20.7622C17.506 20.7622 19.5159 20.446 21.416 19.8173C21.2524 20.1146 21.0693 20.4021 20.8648 20.6767ZM21.892 18.7627C19.417 19.7087 16.7309 20.081 13.8982 19.8723C13.9964 19.4993 14.1021 19.1301 14.2162 18.7639C14.6111 18.7846 15.0041 18.7957 15.3966 18.7957C17.7123 18.7957 19.9878 18.4324 22.185 17.7117C22.113 18.0705 22.0147 18.4208 21.892 18.7627ZM22.312 16.7887C19.7943 17.6689 17.1661 18.0559 14.4878 17.9423C14.5073 17.8874 14.5262 17.8318 14.5457 17.7763C14.6703 17.4296 14.8021 17.0866 14.9406 16.7478C15.1012 16.7509 15.2623 16.7533 15.4235 16.7533C17.7123 16.7533 20.0274 16.4445 22.3235 15.8326C22.3302 15.9602 22.3333 16.0881 22.3333 16.2165C22.3333 16.4085 22.326 16.5996 22.312 16.7887Z" fill="white"/>
</g>
<defs>
<clipPath id="clip0_3_10">
<rect width="20" height="20" fill="white" transform="translate(6.5 5.8)"/>
</clipPath>
</defs>
</svg>
